<svg version="1.1" id="Layer_1" xmlns="http://www.w3.org/2000/svg" xmlns:xlink="http://www.w3.org/1999/xlink" x="0px" y="0px"
	 width="100%" viewBox="0 0 800 800" enable-background="new 0 0 800 800" xml:space="preserve">
<path fill="#FFFFFF" opacity="0.000000" stroke="none" 
	d="
M451.000000,801.000000 
	C300.666656,801.000000 150.833328,801.000000 1.000000,801.000000 
	C1.000000,534.333313 1.000000,267.666656 1.000000,1.000000 
	C267.666656,1.000000 534.333313,1.000000 801.000000,1.000000 
	C801.000000,267.666656 801.000000,534.333313 801.000000,801.000000 
	C684.500000,801.000000 568.000000,801.000000 451.000000,801.000000 
M340.932098,70.245865 
	C323.983002,72.797966 307.376526,76.708786 291.506653,83.288208 
	C240.917038,104.261940 207.810349,141.972610 187.862930,192.113632 
	C175.960800,222.031525 170.339615,253.258698 168.474014,285.325439 
	C166.063843,326.752502 172.082031,366.434540 190.497986,404.028931 
	C196.021637,415.304932 200.468979,427.190765 204.460449,439.114868 
	C210.042404,455.790466 212.967926,472.891113 209.707458,490.617493 
	C207.126816,504.647797 204.519012,518.703796 202.792770,532.854492 
	C198.749802,565.995972 200.298660,598.964722 207.986588,631.494995 
	C214.442215,658.811096 225.472839,683.966064 246.613678,703.279419 
	C277.463593,731.462708 314.766357,737.573730 354.582397,732.447083 
	C387.018524,728.270691 411.933197,710.805664 431.785767,685.503601 
	C450.950714,661.078003 464.015961,633.235352 475.953278,604.894775 
	C487.131805,578.355591 500.753815,553.335144 519.424866,531.387329 
	C530.742371,518.083496 543.463257,505.979950 554.920532,492.787323 
	C586.198486,456.771667 611.173706,417.030090 624.605347,370.806671 
	C632.756104,342.757050 636.493408,314.133484 632.801941,285.003326 
	C628.601135,251.853836 617.509094,220.867828 601.187805,191.787735 
	C557.670715,114.252121 491.367218,73.543945 402.628174,68.769592 
	C382.270325,67.674294 362.037354,67.672646 340.932098,70.245865 
z"/>
<path fill="#000001" opacity="1.000000" stroke="none" 
	d="
M341.368103,70.161591 
	C362.037354,67.672646 382.270325,67.674294 402.628174,68.769592 
	C491.367218,73.543945 557.670715,114.252121 601.187805,191.787735 
	C617.509094,220.867828 628.601135,251.853836 632.801941,285.003326 
	C636.493408,314.133484 632.756104,342.757050 624.605347,370.806671 
	C611.173706,417.030090 586.198486,456.771667 554.920532,492.787323 
	C543.463257,505.979950 530.742371,518.083496 519.424866,531.387329 
	C500.753815,553.335144 487.131805,578.355591 475.953278,604.894775 
	C464.015961,633.235352 450.950714,661.078003 431.785767,685.503601 
	C411.933197,710.805664 387.018524,728.270691 354.582397,732.447083 
	C314.766357,737.573730 277.463593,731.462708 246.613678,703.279419 
	C225.472839,683.966064 214.442215,658.811096 207.986588,631.494995 
	C200.298660,598.964722 198.749802,565.995972 202.792770,532.854492 
	C204.519012,518.703796 207.126816,504.647797 209.707458,490.617493 
	C212.967926,472.891113 210.042404,455.790466 204.460449,439.114868 
	C200.468979,427.190765 196.021637,415.304932 190.497986,404.028931 
	C172.082031,366.434540 166.063843,326.752502 168.474014,285.325439 
	C170.339615,253.258698 175.960800,222.031525 187.862930,192.113632 
	C207.810349,141.972610 240.917038,104.261940 291.506653,83.288208 
	C307.376526,76.708786 323.983002,72.797966 341.368103,70.161591 
M351.731110,188.165695 
	C346.723419,190.787582 341.270721,192.807434 336.778992,196.127380 
	C303.349762,220.835846 285.643646,254.113129 283.936218,295.650238 
	C283.191193,313.774353 297.214325,329.154144 314.522919,330.065063 
	C334.003052,331.090332 349.379944,317.892731 350.887482,298.788849 
	C352.156311,282.709625 358.556366,268.957825 369.658356,257.370300 
	C371.478760,255.470306 373.497650,253.415176 375.843964,252.417023 
	C403.272919,240.748474 430.833588,246.632553 445.540955,276.120544 
	C454.159882,293.401337 451.887268,311.518066 447.190430,329.321869 
	C441.236145,351.891998 427.046448,369.282562 410.274261,384.654022 
	C398.256927,395.667786 385.172058,405.536865 373.406952,416.797913 
	C366.540894,423.369812 359.620239,430.898499 355.774323,439.379822 
	C349.649811,452.885925 345.646484,467.426788 341.603027,481.771576 
	C339.709747,488.488251 338.824768,495.825989 339.224182,502.782288 
	C340.068542,517.487244 352.441956,529.949768 366.775085,531.916504 
	C383.015411,534.144958 397.952667,526.145203 403.659149,511.920532 
	C407.921600,501.295410 412.089600,490.624847 415.967682,479.854980 
	C420.131409,468.291901 426.461090,459.075653 437.027985,451.818329 
	C466.848511,431.337585 488.590302,403.843018 502.590332,370.470276 
	C514.632874,341.763794 520.748596,311.771545 516.635193,280.727173 
	C506.245758,202.316422 425.689362,157.048691 351.731110,188.165695 
M371.765686,594.901978 
	C364.912537,579.699646 351.812622,572.198608 335.300293,574.021667 
	C318.076843,575.923279 304.916138,591.742065 305.854523,609.034729 
	C306.789368,626.263489 320.067291,641.541260 340.353973,641.478760 
	C364.265259,641.405151 379.718079,618.487610 371.765686,594.901978 
z"/>
<path fill="#2CA8BC" opacity="1.000000" stroke="none" 
	d="
M352.087982,188.036316 
	C425.689362,157.048691 506.245758,202.316422 516.635193,280.727173 
	C520.748596,311.771545 514.632874,341.763794 502.590332,370.470276 
	C488.590302,403.843018 466.848511,431.337585 437.027985,451.818329 
	C426.461090,459.075653 420.131409,468.291901 415.967682,479.854980 
	C412.089600,490.624847 407.921600,501.295410 403.659149,511.920532 
	C397.952667,526.145203 383.015411,534.144958 366.775085,531.916504 
	C352.441956,529.949768 340.068542,517.487244 339.224182,502.782288 
	C338.824768,495.825989 339.709747,488.488251 341.603027,481.771576 
	C345.646484,467.426788 349.649811,452.885925 355.774323,439.379822 
	C359.620239,430.898499 366.540894,423.369812 373.406952,416.797913 
	C385.172058,405.536865 398.256927,395.667786 410.274261,384.654022 
	C427.046448,369.282562 441.236145,351.891998 447.190430,329.321869 
	C451.887268,311.518066 454.159882,293.401337 445.540955,276.120544 
	C430.833588,246.632553 403.272919,240.748474 375.843964,252.417023 
	C373.497650,253.415176 371.478760,255.470306 369.658356,257.370300 
	C358.556366,268.957825 352.156311,282.709625 350.887482,298.788849 
	C349.379944,317.892731 334.003052,331.090332 314.522919,330.065063 
	C297.214325,329.154144 283.191193,313.774353 283.936218,295.650238 
	C285.643646,254.113129 303.349762,220.835846 336.778992,196.127380 
	C341.270721,192.807434 346.723419,190.787582 352.087982,188.036316 
z"/>
<path fill="#2BA7BA" opacity="1.000000" stroke="none" 
	d="
M371.868958,595.281006 
	C379.718079,618.487610 364.265259,641.405151 340.353973,641.478760 
	C320.067291,641.541260 306.789368,626.263489 305.854523,609.034729 
	C304.916138,591.742065 318.076843,575.923279 335.300293,574.021667 
	C351.812622,572.198608 364.912537,579.699646 371.868958,595.281006 
z"/>
</svg>