<?xml version="1.0" encoding="utf-8"?><!-- Uploaded to: SVG Repo, www.svgrepo.com, Generator: SVG Repo Mixer Tools -->
<svg fill="#000000" width="800px" height="800px" viewBox="0 0 24 24" id="ear" data-name="Flat Color" xmlns="http://www.w3.org/2000/svg" class="icon flat-color"><path id="primary" d="M13.39,2.21C10.62,1.68,8.46,2.15,7,3.58,5,5.51,4.85,8.69,5.09,10.27a6.71,6.71,0,0,0,.63,1.9,6.5,6.5,0,0,1,.5,1.43,2.53,2.53,0,0,1,0,1.23A10.14,10.14,0,0,0,6,17.54c.09,1.1.38,4.46,4,4.46,2.5,0,3.45-2.09,4.21-3.76a8.41,8.41,0,0,1,1.46-2.47C17.9,13.61,19,11.37,19,9.13S17.22,2.93,13.39,2.21Z" style="fill: rgb(0, 0, 0);"></path><path id="secondary" d="M12.23,13.86a1,1,0,0,1-.62-1.78C13,11,13.5,10.15,13.5,9a1.64,1.64,0,0,0-1-1.55,1.8,1.8,0,0,0-1.3.11A2,2,0,0,0,10.49,9a1,1,0,1,1-2-.26A3.8,3.8,0,0,1,10.1,5.83a3.67,3.67,0,0,1,3-.34A3.57,3.57,0,0,1,15.5,9a5.74,5.74,0,0,1-2.65,4.69A1,1,0,0,1,12.23,13.86Z" style="fill: rgb(44, 169, 188);"></path></svg>